REM DIRINDEX 1\2,1\3,1\4,1\5
REM DIRNAME "folder01","folder02","folder03","folder04","folder05"
TITLE ""
FILE "1Q_t_1710-1719.mp3" MP3
  TRACK 01 AUDIO
    TITLE "0:"
    INDEX 01 00:00:00
  TRACK 02 AUDIO
    TITLE "3:cjc172_6124"
    INDEX 01 00:00:10
  TRACK 03 AUDIO
    TITLE "0:"
    INDEX 01 00:01:23
  TRACK 04 AUDIO
    TITLE "4:cjc172_6125"
    INDEX 01 00:01:33
  TRACK 05 AUDIO
    TITLE "0:"
    INDEX 01 00:04:67
  TRACK 06 AUDIO
    TITLE "5:cjc172_6126"
    INDEX 01 00:04:75
  TRACK 07 AUDIO
    TITLE "0:"
    INDEX 01 00:09:35
  TRACK 08 AUDIO
    TITLE "3:cjc172_6127"
    INDEX 01 00:10:11
  TRACK 09 AUDIO
    TITLE "0:"
    INDEX 01 00:11:04
  TRACK 10 AUDIO
    TITLE "4:cjc172_6128"
    INDEX 01 00:11:16
  TRACK 11 AUDIO
    TITLE "0:"
    INDEX 01 00:12:61
  TRACK 12 AUDIO
    TITLE "5:cjc172_6129"
    INDEX 01 00:12:66
  TRACK 13 AUDIO
    TITLE "0:"
    INDEX 01 00:19:04
  TRACK 14 AUDIO
    TITLE "3:cjc172_6130"
    INDEX 01 00:19:49
  TRACK 15 AUDIO
    TITLE "0:"
    INDEX 01 00:20:52
  TRACK 16 AUDIO
    TITLE "4:cjc172_6131"
    INDEX 01 00:20:62
  TRACK 17 AUDIO
    TITLE "0:"
    INDEX 01 00:23:74
  TRACK 18 AUDIO
    TITLE "5:cjc172_6132"
    INDEX 01 00:24:09
  TRACK 19 AUDIO
    TITLE "0:"
    INDEX 01 00:28:50
  TRACK 20 AUDIO
    TITLE "3:cjc172_6133"
    INDEX 01 00:29:22
  TRACK 21 AUDIO
    TITLE "0:"
    INDEX 01 00:30:31
  TRACK 22 AUDIO
    TITLE "4:cjc172_6134"
    INDEX 01 00:30:41
  TRACK 23 AUDIO
    TITLE "0:"
    INDEX 01 00:32:36
  TRACK 24 AUDIO
    TITLE "5:cjc172_6135"
    INDEX 01 00:32:46
  TRACK 25 AUDIO
    TITLE "0:"
    INDEX 01 00:38:01
  TRACK 26 AUDIO
    TITLE "3:cjc172_6136"
    INDEX 01 00:38:48
  TRACK 27 AUDIO
    TITLE "0:"
    INDEX 01 00:39:55
  TRACK 28 AUDIO
    TITLE "4:cjc172_6137"
    INDEX 01 00:39:65
  TRACK 29 AUDIO
    TITLE "0:"
    INDEX 01 00:42:69
  TRACK 30 AUDIO
    TITLE "5:cjc172_6138"
    INDEX 01 00:43:04
  TRACK 31 AUDIO
    TITLE "0:"
    INDEX 01 00:47:63
  TRACK 32 AUDIO
    TITLE "3:cjc172_6139"
    INDEX 01 00:48:35
  TRACK 33 AUDIO
    TITLE "0:"
    INDEX 01 00:49:44
  TRACK 34 AUDIO
    TITLE "4:cjc172_6140"
    INDEX 01 00:49:56
  TRACK 35 AUDIO
    TITLE "0:"
    INDEX 01 00:52:09
  TRACK 36 AUDIO
    TITLE "5:cjc172_6141"
    INDEX 01 00:52:17
  TRACK 37 AUDIO
    TITLE "0:"
    INDEX 01 00:56:25
  TRACK 38 AUDIO
    TITLE "3:cjc172_6142"
    INDEX 01 00:56:72
  TRACK 39 AUDIO
    TITLE "0:"
    INDEX 01 00:57:65
  TRACK 40 AUDIO
    TITLE "4:cjc172_6143"
    INDEX 01 00:57:75
  TRACK 41 AUDIO
    TITLE "0:"
    INDEX 01 01:00:32
  TRACK 42 AUDIO
    TITLE "5:cjc172_6144"
    INDEX 01 01:00:40
  TRACK 43 AUDIO
    TITLE "0:"
    INDEX 01 01:06:68
  TRACK 44 AUDIO
    TITLE "3:cjc172_6145"
    INDEX 01 01:07:40
  TRACK 45 AUDIO
    TITLE "0:"
    INDEX 01 01:08:36
  TRACK 46 AUDIO
    TITLE "4:cjc172_6146"
    INDEX 01 01:08:45
  TRACK 47 AUDIO
    TITLE "0:"
    INDEX 01 01:11:03
  TRACK 48 AUDIO
    TITLE "5:cjc172_6147"
    INDEX 01 01:11:10
  TRACK 49 AUDIO
    TITLE "0:"
    INDEX 01 01:14:66
  TRACK 50 AUDIO
    TITLE "3:cjc172_6148"
    INDEX 01 01:15:39
  TRACK 51 AUDIO
    TITLE "0:"
    INDEX 01 01:16:49
  TRACK 52 AUDIO
    TITLE "4:cjc172_6149"
    INDEX 01 01:16:60
  TRACK 53 AUDIO
    TITLE "0:"
    INDEX 01 01:19:57
  TRACK 54 AUDIO
    TITLE "5:cjc172_6150"
    INDEX 01 01:19:65
  TRACK 55 AUDIO
    TITLE "0:"
    INDEX 01 01:24:40
  TRACK 56 AUDIO
    TITLE "3:cjc172_6151"
    INDEX 01 01:25:12
  TRACK 57 AUDIO
    TITLE "0:"
    INDEX 01 01:26:41
  TRACK 58 AUDIO
    TITLE "4:cjc172_6152"
    INDEX 01 01:26:49
  TRACK 59 AUDIO
    TITLE "0:"
    INDEX 01 01:29:57
  TRACK 60 AUDIO
    TITLE "5:cjc172_6153"
    INDEX 01 01:29:65
  TRACK 61 AUDIO
    TITLE "0:"
    INDEX 01 01:35:17
